<?xml version="1.0" standalone="no"?>
<!DOCTYPE svg PUBLIC "-//W3C//DTD SVG 20010904//EN"
 "http://www.w3.org/TR/2001/REC-SVG-20010904/DTD/svg10.dtd">
<svg version="1.0" xmlns="http://www.w3.org/2000/svg"
 width="512.000000pt" height="512.000000pt" viewBox="0 0 512.000000 512.000000"
 preserveAspectRatio="xMidYMid meet">

<g transform="translate(0.000000,512.000000) scale(0.100000,-0.100000)"
fill="#000000" stroke="none">
<path d="M1925 5109 c-89 -13 -206 -55 -272 -98 -125 -81 -225 -220 -269 -376
-25 -87 -32 -481 -10 -557 31 -109 114 -194 214 -221 36 -9 48 -19 63 -50 11
-21 36 -56 55 -77 l36 -39 -66 -62 c-73 -68 -127 -161 -146 -252 -7 -37 -10
-228 -8 -604 l3 -549 36 -72 35 -72 -238 0 -238 0 0 80 0 80 135 0 c131 0 137
1 160 25 16 15 25 36 25 55 0 33 -38 80 -65 80 -13 0 -15 67 -15 615 l0 616
-25 24 -24 25 -591 0 -591 0 -24 -25 -25 -24 0 -616 c0 -548 -2 -615 -15 -615
-9 0 -27 -11 -40 -25 -33 -32 -33 -78 0 -110 23 -24 29 -25 168 -25 l145 0 26
-106 27 -105 -46 -51 c-187 -208 -316 -643 -341 -1152 l-7 -134 26 -26 c26
-26 29 -26 165 -26 l139 0 7 -52 c18 -130 111 -295 224 -398 76 -69 209 -140
312 -167 87 -22 253 -22 340 0 103 27 236 98 312 167 113 103 206 268 224 398
l7 52 643 0 c574 0 644 -2 644 -15 0 -9 11 -27 25 -40 24 -25 26 -25 208 -25
l183 0 18 -57 c59 -188 190 -340 371 -429 424 -209 926 40 1021 506 32 161 3
345 -77 488 l-29 52 155 0 c152 0 156 1 180 25 14 13 25 35 25 49 0 49 -71
205 -141 307 -93 137 -277 285 -429 345 -57 22 -72 32 -76 53 -33 152 -107
247 -240 308 -52 24 -74 28 -198 33 l-139 5 -53 158 -52 157 200 0 c240 0 264
5 333 75 69 68 75 94 75 325 0 231 -6 256 -75 326 -74 75 -82 76 -480 72
l-340 -3 -67 -32 c-80 -37 -146 -96 -179 -158 l-24 -45 -337 0 -338 0 0 40 c0
29 4 40 15 40 9 0 27 11 40 25 30 29 33 81 10 168 -22 86 -61 155 -126 223
l-59 61 53 36 c58 40 127 119 159 182 53 102 61 142 66 327 4 176 4 176 28
182 41 11 58 49 51 114 -29 265 -192 479 -425 556 -131 44 -298 57 -447 35z
m633 -871 c-4 -139 -8 -172 -27 -221 -43 -110 -132 -195 -245 -234 -40 -14
-82 -18 -201 -18 -134 0 -154 2 -190 22 -39 20 -93 69 -84 76 2 2 25 18 51 36
55 37 105 105 124 169 9 29 14 96 14 189 l0 143 281 0 281 0 -4 -162z m1635
-1049 c41 -19 47 -49 47 -229 0 -103 -4 -179 -11 -193 -14 -32 -49 -47 -104
-47 l-45 0 0 240 0 240 45 0 c24 0 55 -5 68 -11z m-879 -240 c35 -16 52 -61
37 -98 -15 -35 -48 -51 -106 -51 l-45 0 0 80 0 80 45 0 c24 0 55 -5 69 -11z
m42 -765 l161 -456 -92 -92 c-130 -130 -209 -254 -275 -433 l-28 -77 -7 44
c-16 97 -91 197 -174 235 -29 13 -40 23 -37 34 3 9 40 142 82 296 82 298 90
354 65 453 -17 68 -78 159 -137 205 -71 56 -143 79 -256 85 l-98 4 0 79 0 79
318 0 317 0 161 -456z m-630 123 c28 -7 67 -26 87 -41 47 -36 87 -116 87 -175
0 -27 -34 -172 -82 -348 l-83 -303 -112 0 c-71 0 -113 4 -113 10 0 6 29 127
65 270 36 143 65 272 65 287 0 14 -10 37 -22 50 l-21 23 -338 0 c-207 0 -358
4 -389 11 -91 19 -165 98 -185 197 l-7 32 499 0 c378 0 511 -3 549 -13z
m-1766 -147 l0 -80 -209 0 -209 0 -20 80 -20 80 229 0 229 0 0 -80z m1429
-512 c-67 -266 -68 -276 -69 -400 l0 -128 -78 0 c-83 0 -98 6 -160 64 -42 39
-71 93 -78 150 -14 96 58 212 161 261 30 14 59 34 65 45 5 10 10 77 10 149 l0
131 109 0 109 0 -69 -272z m1835 -614 c10 -4 16 -18 16 -36 0 -24 12 -42 59
-87 77 -73 95 -109 95 -191 0 -137 -96 -234 -234 -234 -82 0 -118 18 -191 95
-45 47 -63 59 -87 59 -34 0 -42 13 -42 73 0 31 13 65 53 136 63 114 102 156
165 175 49 15 139 20 166 10z m-2964 -399 c0 -19 -35 -68 -71 -99 -84 -72
-214 -72 -298 0 -36 31 -71 80 -71 99 0 3 99 5 220 5 121 0 220 -2 220 -5z"/>
<path d="M2240 4240 l0 -80 80 0 80 0 0 80 0 80 -80 0 -80 0 0 -80z"/>
</g>
</svg>
